<!-- Generated by IcoMoon.io -->
<svg version="1.1" xmlns="http://www.w3.org/2000/svg" width="32" height="32" viewBox="0 0 32 32">
<path d="M18.667 17.333h-1.333v-1.333c0-0.354-0.14-0.693-0.39-0.943s-0.589-0.39-0.943-0.39c-0.354 0-0.693 0.14-0.943 0.39s-0.39 0.589-0.39 0.943v1.333h-1.333c-0.354 0-0.693 0.14-0.943 0.39s-0.39 0.589-0.39 0.943c0 0.354 0.14 0.693 0.39 0.943s0.589 0.39 0.943 0.39h1.333v1.333c0 0.354 0.14 0.693 0.39 0.943s0.589 0.39 0.943 0.39c0.354 0 0.693-0.14 0.943-0.39s0.39-0.589 0.39-0.943v-1.333h1.333c0.354 0 0.693-0.14 0.943-0.39s0.39-0.589 0.39-0.943c0-0.354-0.14-0.693-0.39-0.943s-0.589-0.39-0.943-0.39z"></path>
<path d="M26 9.4h-9.333l-3.507-4.24c-0.124-0.153-0.281-0.277-0.458-0.362s-0.372-0.13-0.569-0.132h-6.133c-0.871-0.011-1.711 0.324-2.336 0.932s-0.983 1.437-0.997 2.308v16.187c0.014 0.871 0.373 1.701 0.997 2.308s1.465 0.942 2.336 0.932h20c0.871 0.011 1.711-0.324 2.336-0.932s0.983-1.437 0.997-2.308v-11.453c-0.014-0.871-0.373-1.701-0.997-2.309s-1.465-0.942-2.336-0.932zM26.667 24.067c-0.005 0.082-0.026 0.162-0.063 0.235s-0.087 0.139-0.149 0.192c-0.062 0.053-0.134 0.094-0.212 0.119s-0.16 0.034-0.242 0.027h-20c-0.082 0.007-0.164-0.002-0.242-0.027s-0.15-0.066-0.212-0.119c-0.062-0.053-0.113-0.119-0.149-0.192s-0.058-0.153-0.063-0.235v-16.16c0.005-0.082 0.026-0.162 0.063-0.235s0.087-0.139 0.149-0.192c0.062-0.053 0.134-0.094 0.212-0.119s0.16-0.034 0.242-0.027h5.507l3.467 4.24c0.124 0.153 0.281 0.276 0.458 0.362s0.372 0.13 0.569 0.132h10c0.082-0.007 0.164 0.002 0.242 0.027s0.15 0.066 0.212 0.119 0.113 0.119 0.149 0.192c0.036 0.073 0.058 0.153 0.063 0.235v11.427z"></path>
</svg>
