<!-- Generated by IcoMoon.io -->
<svg version="1.1" xmlns="http://www.w3.org/2000/svg" width="32" height="32" viewBox="0 0 32 32">
<path d="M17.403 7.907c-0.484 0-0.954 0.060-1.403 0.172 0.289-2.609 1.331-4.989 2.904-6.923 6.256 0.741 11.108 6.065 11.108 12.521v9.202c-0.251 0.014-0.504 0.021-0.759 0.021-5.005 0-9.368-2.757-11.649-6.839h5.569v-2.385c0-3.187-2.583-5.77-5.77-5.77z"></path>
<path d="M1.828 14.474c0-7.747 6.28-14.026 14.026-14.026 3.873 0 7.38 1.57 9.918 4.108-2.34-2.34-5.503-3.857-9.017-4.080-2.364 2.616-3.803 6.083-3.803 9.887 0 0.284 0.008 0.566 0.024 0.845-0.904 0.798-1.475 1.965-1.475 3.266v0.967l2.348 0c2.070 5.645 7.492 9.673 13.854 9.673 0.739 0 1.466-0.054 2.176-0.159v5.963h-9.673v-5.804h-8.706v5.804h-9.673v-16.445z"></path>
</svg>
