<!-- Generated by IcoMoon.io -->
<svg version="1.1" xmlns="http://www.w3.org/2000/svg" width="32" height="32" viewBox="0 0 32 32">
<path d="M15.999 9.836c-1.635 0-3.203 0.65-4.36 1.806s-1.806 2.724-1.806 4.36c0 1.635 0.65 3.203 1.806 4.36s2.724 1.806 4.36 1.806 3.203-0.649 4.36-1.806c1.156-1.156 1.806-2.724 1.806-4.36s-0.65-3.203-1.806-4.36c-1.156-1.156-2.724-1.806-4.36-1.806zM15.999 20.005c-1.062 0-2.081-0.422-2.832-1.173s-1.173-1.77-1.173-2.832c0-1.062 0.422-2.081 1.173-2.832s1.77-1.173 2.832-1.173 2.081 0.422 2.832 1.173c0.751 0.751 1.173 1.77 1.173 2.832s-0.422 2.081-1.173 2.832c-0.751 0.751-1.77 1.173-2.832 1.173z"></path>
<path d="M22.408 11.047c0.794 0 1.437-0.644 1.437-1.437s-0.644-1.437-1.437-1.437-1.437 0.644-1.437 1.437c0 0.794 0.644 1.437 1.437 1.437z"></path>
<path d="M27.377 8.148c-0.309-0.797-0.78-1.521-1.385-2.125s-1.329-1.076-2.126-1.384c-0.933-0.35-1.918-0.54-2.915-0.56-1.284-0.056-1.691-0.072-4.947-0.072s-3.673 0-4.947 0.072c-0.995 0.019-1.98 0.209-2.912 0.56-0.797 0.308-1.522 0.779-2.126 1.384s-1.076 1.328-1.384 2.126c-0.35 0.933-0.539 1.918-0.559 2.915-0.057 1.283-0.075 1.689-0.075 4.947 0 3.256 0 3.671 0.075 4.947 0.020 0.997 0.208 1.981 0.559 2.916 0.309 0.797 0.781 1.521 1.386 2.125s1.329 1.076 2.126 1.384c0.93 0.364 1.915 0.567 2.913 0.6 1.284 0.056 1.691 0.073 4.947 0.073s3.673 0 4.947-0.073c0.996-0.020 1.982-0.209 2.915-0.559 0.797-0.309 1.521-0.781 2.125-1.385s1.076-1.328 1.385-2.125c0.351-0.933 0.539-1.917 0.559-2.915 0.057-1.283 0.075-1.689 0.075-4.947s0-3.671-0.075-4.947c-0.016-1.010-0.205-2.010-0.561-2.956zM25.753 20.857c-0.009 0.768-0.149 1.53-0.415 2.251-0.2 0.519-0.507 0.989-0.9 1.382s-0.864 0.699-1.383 0.899c-0.713 0.265-1.466 0.405-2.227 0.415-1.267 0.059-1.624 0.073-4.872 0.073-3.251 0-3.583 0-4.873-0.073-0.76-0.009-1.513-0.149-2.225-0.415-0.52-0.199-0.993-0.504-1.388-0.897s-0.703-0.864-0.904-1.384c-0.262-0.713-0.402-1.465-0.415-2.225-0.057-1.267-0.071-1.624-0.071-4.872 0-3.249 0-3.581 0.071-4.873 0.009-0.768 0.149-1.529 0.415-2.249 0.407-1.052 1.24-1.88 2.292-2.283 0.713-0.264 1.465-0.404 2.225-0.415 1.268-0.057 1.624-0.073 4.873-0.073s3.583 0 4.872 0.073c0.761 0.009 1.514 0.149 2.227 0.415 0.519 0.2 0.989 0.507 1.383 0.9s0.7 0.864 0.9 1.383c0.262 0.713 0.402 1.466 0.415 2.225 0.057 1.268 0.072 1.624 0.072 4.873 0 3.248 0 3.597-0.057 4.872h-0.015v-0.001z"></path>
</svg>
