<!-- Generated by IcoMoon.io -->
<svg version="1.1" xmlns="http://www.w3.org/2000/svg" width="32" height="32" viewBox="0 0 32 32">
<path d="M26.177 10.663c0.017 0.233 0.017 0.465 0.017 0.697 0 7.1-5.404 15.281-15.28 15.281-3.043 0-5.869-0.881-8.248-2.412 0.432 0.049 0.848 0.067 1.297 0.067 2.417 0.006 4.766-0.802 6.668-2.295-1.121-0.020-2.207-0.39-3.108-1.058s-1.57-1.6-1.915-2.666c0.332 0.049 0.665 0.083 1.015 0.083 0.481 0 0.965-0.067 1.415-0.183-1.216-0.246-2.31-0.905-3.095-1.866s-1.213-2.164-1.212-3.405v-0.067c0.716 0.399 1.547 0.648 2.427 0.681-0.737-0.49-1.342-1.155-1.76-1.935s-0.636-1.652-0.635-2.537c0-0.997 0.265-1.912 0.731-2.709 1.35 1.66 3.033 3.018 4.94 3.986s3.998 1.525 6.134 1.634c-0.083-0.4-0.133-0.815-0.133-1.231-0-0.705 0.138-1.404 0.408-2.056s0.665-1.244 1.164-1.743 1.091-0.894 1.743-1.164c0.652-0.27 1.35-0.408 2.056-0.408 1.547 0 2.943 0.648 3.924 1.696 1.202-0.232 2.355-0.671 3.408-1.297-0.401 1.241-1.24 2.293-2.361 2.96 1.066-0.122 2.109-0.402 3.092-0.832-0.735 1.071-1.645 2.010-2.692 2.777z"></path>
</svg>
