<!-- Generated by IcoMoon.io -->
<svg version="1.1" xmlns="http://www.w3.org/2000/svg" width="33" height="32" viewBox="0 0 33 32">
<path fill="#f06" opacity="0.78" d="M0 2c0-1.105 0.895-2 2-2h28.5c1.105 0 2 0.895 2 2v27.912c0 1.105-0.895 2-2 2h-28.5c-1.105 0-2-0.895-2-2v-27.912z"></path>
<path fill="#fff" opacity="0.78" d="M11.059 10.269c1.028-0.015 1.851-0.842 1.841-1.852s-0.849-1.821-1.877-1.816-1.859 0.824-1.859 1.834c0.001 0.243 0.051 0.483 0.147 0.707s0.236 0.427 0.412 0.598 0.385 0.305 0.614 0.396c0.229 0.091 0.475 0.136 0.722 0.134v-0z"></path>
<path fill="#fff" opacity="0.78" d="M7.129 20.089c-0.108 0.452-0.164 0.914-0.168 1.377 0 1.615 0.892 2.687 2.787 2.687 1.572 0 2.847-0.916 3.764-2.397l-0.56 2.208h3.12l1.785-7.021c0.446-1.779 1.309-2.702 2.619-2.702 1.031 0 1.672 0.629 1.672 1.67 0.005 0.333-0.042 0.666-0.139 0.985l-0.919 3.228c-0.131 0.445-0.197 0.905-0.195 1.368 0 1.532 0.919 2.655 2.842 2.655 1.645 0 2.955-1.039 3.679-3.529l-1.226-0.466c-0.614 1.67-1.143 1.971-1.56 1.971s-0.642-0.273-0.642-0.821c0.012-0.287 0.059-0.572 0.139-0.849l0.893-3.146c0.201-0.647 0.304-1.319 0.307-1.995 0-2.354-1.45-3.582-3.206-3.582-1.645 0-3.316 1.456-4.152 2.989l0.612-2.752h-4.765l-0.669 2.425h2.231l-1.373 5.392c-1.079 2.354-3.060 2.392-3.309 2.337-0.408-0.091-0.668-0.243-0.668-0.766 0.012-0.424 0.077-0.844 0.195-1.252l2.090-8.143h-5.294l-0.668 2.425h2.201l-1.424 5.702z"></path>
</svg>
