<!-- Generated by IcoMoon.io -->
<svg version="1.1" xmlns="http://www.w3.org/2000/svg" width="33" height="32" viewBox="0 0 33 32">
<path fill="#e01e5a" opacity="0.78" d="M6.836 20.11c0 0.439-0.088 0.874-0.259 1.28s-0.422 0.774-0.738 1.085c-0.316 0.311-0.692 0.557-1.105 0.724s-0.856 0.254-1.304 0.253c-0.447 0-0.89-0.086-1.303-0.254s-0.788-0.414-1.104-0.725c-0.316-0.31-0.567-0.679-0.738-1.085s-0.259-0.84-0.258-1.279c-0-0.439 0.087-0.874 0.258-1.28s0.422-0.774 0.738-1.085c0.316-0.311 0.692-0.557 1.105-0.725s0.856-0.254 1.303-0.254h3.406v3.343h-0.001zM8.538 20.11c-0-0.439 0.087-0.874 0.258-1.28s0.422-0.774 0.738-1.085c0.316-0.311 0.692-0.557 1.105-0.725s0.856-0.254 1.303-0.254c0.447-0 0.89 0.086 1.303 0.254s0.789 0.414 1.105 0.725c0.316 0.31 0.567 0.679 0.738 1.085s0.259 0.841 0.258 1.28v8.358c0 0.439-0.087 0.874-0.258 1.28s-0.422 0.774-0.738 1.085-0.692 0.557-1.105 0.725c-0.413 0.168-0.856 0.254-1.303 0.254s-0.89-0.086-1.303-0.254-0.789-0.414-1.105-0.725c-0.316-0.31-0.567-0.679-0.738-1.085s-0.259-0.841-0.258-1.28v-8.358z"></path>
<path fill="#36c5f0" opacity="0.78" d="M11.942 6.687c-0.447 0-0.89-0.086-1.304-0.254s-0.789-0.414-1.105-0.725c-0.316-0.311-0.567-0.679-0.738-1.085s-0.259-0.841-0.258-1.28c-0-0.439 0.088-0.874 0.258-1.28s0.422-0.774 0.738-1.085c0.316-0.31 0.692-0.557 1.105-0.725s0.856-0.254 1.303-0.254c0.447-0 0.89 0.086 1.303 0.254s0.789 0.414 1.105 0.725c0.316 0.31 0.567 0.679 0.738 1.085s0.259 0.841 0.258 1.28v3.345l-3.404-0.001zM11.942 8.383c0.447-0 0.89 0.086 1.303 0.254s0.789 0.414 1.105 0.725c0.316 0.31 0.567 0.679 0.738 1.085s0.259 0.841 0.258 1.28c0 0.439-0.087 0.874-0.258 1.28s-0.422 0.774-0.738 1.085c-0.316 0.31-0.692 0.557-1.105 0.725s-0.856 0.254-1.303 0.254h-8.538c-0.447 0-0.89-0.086-1.303-0.254s-0.788-0.414-1.105-0.724c-0.316-0.31-0.567-0.679-0.738-1.084s-0.259-0.84-0.259-1.279c-0-0.439 0.087-0.874 0.258-1.28s0.422-0.774 0.738-1.085 0.692-0.557 1.105-0.725c0.413-0.168 0.856-0.254 1.303-0.254l8.538-0.001z"></path>
<path fill="#2eb67d" opacity="0.78" d="M25.587 11.726c-0-0.439 0.087-0.874 0.259-1.28s0.422-0.774 0.738-1.085c0.316-0.31 0.692-0.557 1.105-0.724s0.856-0.254 1.304-0.253c0.447-0 0.89 0.086 1.303 0.254s0.789 0.414 1.105 0.725c0.316 0.31 0.567 0.679 0.738 1.085s0.259 0.841 0.258 1.28c0 0.439-0.087 0.874-0.258 1.28s-0.422 0.774-0.738 1.085c-0.316 0.31-0.692 0.557-1.105 0.725s-0.856 0.254-1.303 0.254h-3.406v-3.343zM23.885 11.726c0 0.439-0.087 0.874-0.258 1.28s-0.422 0.774-0.738 1.085c-0.316 0.31-0.692 0.557-1.105 0.725s-0.856 0.254-1.303 0.254c-0.447 0.001-0.89-0.086-1.304-0.253s-0.789-0.414-1.105-0.724c-0.316-0.31-0.567-0.679-0.738-1.085s-0.259-0.841-0.259-1.28v-8.383c-0-0.439 0.087-0.874 0.259-1.28s0.422-0.774 0.738-1.085c0.316-0.31 0.692-0.557 1.105-0.724s0.856-0.254 1.304-0.253c0.447-0 0.89 0.086 1.303 0.254s0.789 0.414 1.105 0.725c0.316 0.31 0.567 0.679 0.738 1.085s0.259 0.841 0.258 1.28v8.383z"></path>
<path fill="#ecb22e" opacity="0.78" d="M20.48 25.124c0.447-0 0.89 0.086 1.303 0.254s0.789 0.414 1.105 0.725c0.316 0.311 0.567 0.679 0.738 1.085s0.259 0.841 0.258 1.28c0.001 0.439-0.087 0.874-0.258 1.28s-0.422 0.775-0.738 1.085c-0.316 0.311-0.692 0.557-1.105 0.725s-0.856 0.254-1.304 0.254c-0.447 0-0.89-0.086-1.304-0.254s-0.789-0.414-1.105-0.725c-0.316-0.311-0.567-0.679-0.738-1.085s-0.259-0.841-0.258-1.28v-3.343h3.404zM20.48 23.452c-0.447 0-0.89-0.086-1.303-0.254s-0.789-0.414-1.105-0.725c-0.316-0.311-0.567-0.679-0.738-1.085s-0.259-0.841-0.258-1.28c-0-0.439 0.087-0.874 0.258-1.28s0.422-0.774 0.738-1.085c0.316-0.311 0.692-0.557 1.105-0.725s0.856-0.254 1.303-0.254h8.538c0.447-0 0.89 0.086 1.303 0.254s0.789 0.414 1.105 0.725c0.316 0.31 0.567 0.679 0.738 1.085s0.259 0.841 0.258 1.28c0 0.439-0.087 0.874-0.258 1.28s-0.422 0.774-0.738 1.085c-0.316 0.31-0.692 0.557-1.105 0.725s-0.856 0.254-1.303 0.254h-8.538z"></path>
</svg>
