<!-- Generated by IcoMoon.io -->
<svg version="1.1" xmlns="http://www.w3.org/2000/svg" width="33" height="32" viewBox="0 0 33 32">
<path fill="#0065a9" opacity="0.78" d="M31.744 3.377l-6.776-3.179c-0.383-0.18-0.813-0.239-1.232-0.169s-0.805 0.264-1.105 0.556l-22.183 19.708c-0.597 0.53-0.596 1.445 0.002 1.975l1.812 1.605c0.237 0.21 0.541 0.332 0.861 0.346s0.634-0.082 0.889-0.27l26.713-19.747c0.896-0.662 2.183-0.040 2.183 1.056v-0.077c0-0.377-0.109-0.746-0.315-1.066s-0.5-0.575-0.849-0.739z"></path>
<path fill="#007acc" opacity="0.78" d="M31.744 28.503l-6.776 3.179c-0.383 0.179-0.813 0.239-1.232 0.169s-0.805-0.264-1.105-0.556l-22.183-19.708c-0.597-0.53-0.596-1.445 0.002-1.975l1.812-1.605c0.237-0.21 0.541-0.332 0.861-0.346s0.634 0.082 0.889 0.27l26.713 19.747c0.896 0.662 2.183 0.040 2.183-1.057v0.077c0 0.377-0.109 0.746-0.315 1.066s-0.5 0.575-0.849 0.739z"></path>
<path fill="#1f9cf0" opacity="0.78" d="M24.946 31.685c-0.383 0.179-0.813 0.238-1.232 0.169s-0.805-0.264-1.105-0.557c0.758 0.739 2.056 0.216 2.056-0.83v-29.051c0-1.045-1.297-1.569-2.056-0.83 0.3-0.293 0.687-0.487 1.105-0.557s0.849-0.010 1.232 0.169l6.775 3.175c0.349 0.163 0.643 0.42 0.849 0.739s0.315 0.689 0.315 1.066v21.526c0 0.77-0.453 1.471-1.165 1.805l-6.775 3.175z"></path>
<path fill="#000" opacity="0.195" d="M23.321 31.744c0.262 0.099 0.542 0.145 0.822 0.135s0.556-0.077 0.809-0.196l6.771-3.175c0.349-0.164 0.643-0.42 0.849-0.739s0.315-0.689 0.315-1.066v-21.526c0-0.377-0.109-0.747-0.315-1.066s-0.5-0.575-0.849-0.739l-6.771-3.175c-0.383-0.179-0.813-0.238-1.231-0.169s-0.805 0.264-1.105 0.557l-12.962 11.523-5.646-4.176c-0.255-0.188-0.569-0.284-0.888-0.27s-0.624 0.136-0.86 0.346l-1.811 1.605c-0.597 0.529-0.598 1.445-0.002 1.975l4.897 4.353-4.897 4.353c-0.596 0.53-0.596 1.445 0.002 1.975l1.811 1.605c0.236 0.21 0.541 0.332 0.86 0.346s0.634-0.082 0.889-0.27l5.646-4.176 12.962 11.523c0.2 0.196 0.44 0.348 0.705 0.449zM24.671 8.665l-9.835 7.275 9.835 7.275v-14.55z"></path>
</svg>
