<svg width="28" height="28" viewBox="0 0 28 28" fill="none" xmlns="http://www.w3.org/2000/svg">
<rect width="28" height="28" fill="#E5E5E5"/>
<g clip-path="url(#clip0_0_1)">
<rect width="1440" height="5252" transform="translate(-565 -1363)" fill="#1E252B"/>
<g filter="url(#filter0_b_0_1)">
<rect x="-40" y="-226" width="392" height="294" rx="15" fill="#283036" fill-opacity="0.6"/>
<rect x="-41" y="-227" width="394" height="296" rx="16" stroke="url(#paint0_linear_0_1)" stroke-opacity="0.1" stroke-width="2"/>
</g>
<g filter="url(#filter1_d_0_1)">
<rect x="-7" y="-7" width="42" height="42" rx="8" fill="#283036"/>
</g>
<path d="M19.8333 5.25C17.3833 5.25 15.225 6.475 14 8.4C12.775 6.475 10.6167 5.25 8.16667 5.25C4.31667 5.25 1.16667 8.4 1.16667 12.25C1.16667 19.1917 14 26.25 14 26.25C14 26.25 26.8333 19.25 26.8333 12.25C26.8333 8.4 23.6833 5.25 19.8333 5.25Z" fill="#FD3B41"/>
</g>
<defs>
<filter id="filter0_b_0_1" x="-92" y="-278" width="496" height="398" filterUnits="userSpaceOnUse" color-interpolation-filters="sRGB">
<feFlood flood-opacity="0" result="BackgroundImageFix"/>
<feGaussianBlur in="BackgroundImageFix" stdDeviation="25"/>
<feComposite in2="SourceAlpha" operator="in" result="effect1_backgroundBlur_0_1"/>
<feBlend mode="normal" in="SourceGraphic" in2="effect1_backgroundBlur_0_1" result="shape"/>
</filter>
<filter id="filter1_d_0_1" x="-14" y="-9" width="56" height="56" filterUnits="userSpaceOnUse" color-interpolation-filters="sRGB">
<feFlood flood-opacity="0" result="BackgroundImageFix"/>
<feColorMatrix in="SourceAlpha" type="matrix" values="0 0 0 0 0 0 0 0 0 0 0 0 0 0 0 0 0 0 127 0" result="hardAlpha"/>
<feMorphology radius="3" operator="erode" in="SourceAlpha" result="effect1_dropShadow_0_1"/>
<feOffset dy="5"/>
<feGaussianBlur stdDeviation="5"/>
<feColorMatrix type="matrix" values="0 0 0 0 0.0705882 0 0 0 0 0.0705882 0 0 0 0 0.0705882 0 0 0 0.15 0"/>
<feBlend mode="normal" in2="BackgroundImageFix" result="effect1_dropShadow_0_1"/>
<feBlend mode="normal" in="SourceGraphic" in2="effect1_dropShadow_0_1" result="shape"/>
</filter>
<linearGradient id="paint0_linear_0_1" x1="-49.5" y1="-230.5" x2="343" y2="53.5" gradientUnits="userSpaceOnUse">
<stop stop-color="white" stop-opacity="0.8"/>
<stop offset="0.310056" stop-color="white" stop-opacity="0"/>
<stop offset="0.473246" stop-color="white" stop-opacity="0.5"/>
<stop offset="1" stop-color="white" stop-opacity="0"/>
</linearGradient>
<clipPath id="clip0_0_1">
<rect width="1440" height="5252" fill="white" transform="translate(-565 -1363)"/>
</clipPath>
</defs>
</svg>
